# Blender 4.2.3 LTS
# www.blender.org
mtllib platform.mtl
o floor
v 12.259928 0.002679 -41.432083
v 12.259928 -0.002679 -41.432083
v 12.259928 0.002679 -14.374372
v 12.259928 -0.002679 -14.374372
v -12.259928 0.002679 -41.432083
v -12.259928 -0.002679 -41.432083
v -12.259928 0.002679 -14.374372
v -12.259928 -0.002679 -14.374372
v 12.259928 0.006915 -41.432083
v -12.259928 0.006915 -41.432083
v -11.061937 0.006915 -41.432083
v -5.918122 0.006915 -41.432083
v -2.654832 0.006915 -41.432083
v 2.078183 0.006915 -41.432083
v 4.965742 0.006915 -41.432083
v 9.832571 0.006915 -41.432083
vn -0.0000 1.0000 -0.0000
vn -0.0000 -0.0000 1.0000
vn -0.0000 -1.0000 -0.0000
vn 1.0000 -0.0000 -0.0000
vn -0.0000 -0.0000 -1.0000
vn -0.0000 0.0001 -1.0000
vt 1.004192 0.999918
vt -0.002028 0.999918
vt -0.002028 0.000082
vt 1.004192 0.000082
vt 0.375000 0.750000
vt 0.625000 0.750000
vt 0.625000 1.000000
vt 0.375000 1.000000
vt 0.125000 0.500000
vt 0.375000 0.500000
vt 0.125000 0.750000
vt 0.625000 0.500000
vt 0.375000 0.250000
vt 0.625000 0.250000
vt 0.875000 0.500000
vt 0.875000 0.500000
vt 0.844654 0.500000
vt 0.809399 0.500000
vt 0.753946 0.500000
vt 0.716903 0.500000
vt 0.670951 0.500000
vt 0.635256 0.500000
s 0
usemtl Floor.001
f 1/1/1 5/2/1 7/3/1 3/4/1
f 4/5/2 3/6/2 7/7/2 8/8/2
f 6/9/3 2/10/3 4/5/3 8/11/3
f 2/10/4 1/12/4 3/6/4 4/5/4
f 6/13/5 5/14/5 1/12/5 2/10/5
f 1/12/6 5/15/6 10/16/6 11/17/6 12/18/6 13/19/6 14/20/6 15/21/6 16/22/6 9/12/6
o Plane
v -12.271110 0.042605 -41.357227
v 12.274638 0.042605 -41.357227
v -12.271110 13.388731 -41.357224
v 12.274638 13.388731 -41.357224
v -12.271110 4.686292 -41.357227
v 12.274638 4.686292 -41.357227
v -10.523319 0.042605 -41.357227
v -5.887342 0.042605 -41.357227
v -2.329875 0.042605 -41.357227
v 2.273140 0.042605 -41.357227
v 5.819713 0.042605 -41.357227
v 10.452473 0.042605 -41.357227
v 10.452473 13.388731 -41.357224
v 5.819713 13.388731 -41.357224
v 2.273140 13.388731 -41.357224
v -2.364830 13.388731 -41.357224
v -5.887342 13.388731 -41.357224
v -10.523319 13.388731 -41.357224
v 10.452473 4.686292 -41.357227
v 5.819713 4.686292 -41.357227
v 2.273140 4.686292 -41.357227
v -2.329875 4.686292 -41.357227
v -5.887342 4.686292 -41.357227
v -10.523319 4.686292 -41.357227
vn -0.0000 -0.0000 1.0000
vt 0.856397 0.347943
vt 1.000000 0.347943
vt 1.000000 1.000000
vt 0.856397 1.000000
vt 0.856397 0.000000
vt 1.000000 0.000000
vt 0.000000 0.000000
vt 0.142112 0.000000
vt 0.142112 0.347943
vt 0.000000 0.347943
vt 0.284969 0.000000
vt 0.427826 0.000000
vt 0.427826 0.347943
vt 0.284969 0.347943
vt 0.570683 0.000000
vt 0.713540 0.000000
vt 0.713540 0.347943
vt 0.570683 0.347943
vt 0.142112 1.000000
vt 0.000000 1.000000
vt 0.284969 1.000000
vt 0.427826 1.000000
vt 0.570683 1.000000
vt 0.713540 1.000000
s 0
usemtl Backwall.001
f 35/23/7 22/24/7 20/25/7 29/26/7
f 28/27/7 18/28/7 22/24/7 35/23/7
f 17/29/7 23/30/7 40/31/7 21/32/7
f 24/33/7 25/34/7 38/35/7 39/36/7
f 26/37/7 27/38/7 36/39/7 37/40/7
f 21/32/7 40/31/7 34/41/7 19/42/7
f 40/31/7 39/36/7 33/43/7 34/41/7
f 39/36/7 38/35/7 32/44/7 33/43/7
f 38/35/7 37/40/7 31/45/7 32/44/7
f 37/40/7 36/39/7 30/46/7 31/45/7
f 36/39/7 35/23/7 29/26/7 30/46/7
